<?xml version="1.0" encoding="UTF-8" standalone="no"?>
<!DOCTYPE svg PUBLIC "-//W3C//DTD SVG 1.1//EN" "http://www.w3.org/Graphics/SVG/1.1/DTD/svg11.dtd">
<svg xmlns="http://www.w3.org/2000/svg" version="1.1" viewBox="0.00 0.00 640.00 640.00">
    <style>
        @media (prefers-color-scheme: dark) {
            path, ellipse {
                fill: #ffffff;
            }
        }
    </style>
    <path fill="#000000" d="
  M 114.66 505.65
  Q 134.98 527.39 159.44 543.50
  Q 197.83 568.79 242.15 580.74
  Q 265.23 586.97 281.28 588.72
  Q 285.55 589.18 289.77 589.74
  C 296.97 590.69 303.90 590.50 310.98 591.04
  Q 322.77 591.94 332.88 591.22
  Q 339.20 590.76 345.41 590.57
  C 350.96 590.40 356.23 589.54 361.61 588.94
  Q 380.19 586.87 402.72 580.68
  C 434.86 571.85 465.91 556.59 492.32 535.85
  Q 554.36 487.14 578.66 410.70
  C 581.26 402.52 583.37 393.58 585.20 385.14
  Q 586.64 378.47 587.85 369.39
  Q 588.90 361.51 589.15 353.85
  Q 589.85 331.84 588.66 319.55
  Q 581.57 246.27 535.34 188.70
  Q 529.88 181.91 522.21 174.06
  Q 498.84 150.14 469.01 133.19
  C 433.81 113.19 396.29 98.02 355.55 86.16
  Q 333.11 79.63 305.03 72.55
  Q 281.00 66.50 257.21 61.31
  Q 193.98 47.52 141.51 35.73
  Q 132.20 33.64 122.08 31.10
  Q 98.42 25.17 76.62 19.44
  C 72.21 18.28 61.30 14.67 59.74 9.42
  A 1.20 1.19 -41.0 0 1 59.80 8.60
  C 62.57 2.55 77.71 0.97 83.33 1.50
  Q 101.48 3.21 117.64 5.24
  Q 120.78 5.64 123.56 6.07
  Q 126.35 6.50 129.47 6.89
  Q 135.24 7.61 140.75 8.43
  Q 152.69 10.19 162.98 12.03
  Q 188.41 16.57 214.29 21.39
  Q 242.27 26.60 269.53 32.30
  Q 276.48 33.75 283.48 35.08
  C 289.88 36.30 296.28 37.98 302.53 39.25
  Q 343.84 47.62 384.23 59.74
  C 431.90 74.04 477.38 94.01 517.57 122.70
  C 549.86 145.74 575.18 175.29 595.53 210.36
  Q 606.41 229.12 613.32 251.69
  Q 620.38 274.78 624.85 290.88
  Q 627.07 298.86 628.63 308.98
  C 629.16 312.40 630.15 315.57 630.17 319.06
  C 630.18 321.65 631.18 323.87 631.37 326.44
  C 632.27 338.63 633.31 350.52 632.53 362.80
  Q 631.97 371.62 631.37 379.88
  C 631.21 382.13 630.34 384.26 630.24 386.47
  C 630.06 390.56 629.12 394.46 628.53 398.50
  Q 627.61 404.79 626.49 410.99
  Q 625.47 416.61 623.50 421.98
  Q 615.66 443.43 610.08 453.18
  Q 605.82 460.60 603.47 465.68
  C 597.89 477.72 590.46 488.54 582.81 499.68
  Q 569.41 519.19 560.74 530.16
  Q 542.26 553.55 516.61 572.64
  Q 483.15 597.54 444.64 613.00
  Q 425.41 620.71 408.45 625.22
  Q 393.81 629.12 376.45 632.40
  C 372.52 633.14 368.72 633.45 364.87 634.17
  C 361.14 634.88 357.39 634.96 353.72 635.50
  Q 350.57 635.96 347.23 636.21
  Q 325.64 637.79 311.82 637.25
  Q 302.58 636.89 293.07 636.22
  Q 289.72 635.99 286.28 635.46
  C 283.18 634.98 280.02 634.81 276.88 634.35
  Q 213.87 625.01 158.18 594.50
  Q 144.45 586.98 134.72 580.04
  Q 127.08 574.59 119.43 569.37
  C 111.29 563.81 104.56 556.74 96.81 550.67
  Q 93.14 547.79 89.42 543.93
  C 78.46 532.58 68.48 521.24 59.30 507.83
  Q 43.62 484.92 32.09 459.90
  Q 27.88 450.78 24.90 441.33
  Q 21.13 429.37 18.81 419.34
  Q 16.38 408.83 14.03 398.03
  Q 13.23 394.37 12.99 390.94
  C 12.76 387.62 12.01 384.59 11.84 381.34
  C 11.58 376.26 11.44 371.28 11.03 366.22
  C 10.21 356.24 11.35 346.77 11.82 336.86
  C 11.99 333.09 12.83 329.47 13.09 325.70
  Q 13.23 323.54 13.62 321.20
  Q 17.29 298.74 23.71 278.56
  Q 55.90 177.32 132.69 102.39
  Q 139.72 95.54 148.62 90.19
  C 156.27 85.59 166.80 83.12 174.12 88.99
  Q 183.27 96.32 178.25 107.61
  Q 174.76 115.46 168.53 122.71
  Q 153.15 140.63 140.05 157.66
  Q 109.98 196.76 89.62 237.09
  Q 75.20 265.64 66.47 297.82
  Q 56.80 333.46 57.85 370.13
  C 58.04 376.82 58.87 383.35 59.42 389.92
  C 59.66 392.88 60.63 395.58 60.81 398.51
  Q 60.97 401.02 61.63 403.36
  C 62.24 405.51 62.51 407.74 63.05 409.94
  Q 76.31 464.61 114.66 505.65
  Z"
    />
    <path fill="#000000" d="
  M 211.13 85.86
  C 208.16 85.61 204.62 84.83 201.27 84.67
  C 196.24 84.42 191.29 83.44 186.24 82.89
  Q 177.28 81.92 168.06 80.67
  Q 163.56 80.06 159.81 79.84
  C 156.02 79.61 152.50 78.66 148.76 78.41
  C 143.74 78.06 138.85 76.83 133.81 76.50
  Q 131.48 76.35 129.24 75.78
  C 125.69 74.88 122.03 75.20 118.53 74.43
  C 113.66 73.38 108.45 73.09 103.49 72.30
  Q 101.03 71.91 98.27 71.55
  Q 89.77 70.45 81.19 69.28
  Q 77.13 68.72 73.35 68.04
  Q 69.78 67.40 65.52 66.71
  Q 54.59 64.94 43.27 62.23
  Q 33.14 59.81 31.08 59.01
  Q 25.57 56.86 20.88 51.92
  C 18.58 49.49 15.86 45.20 16.77 41.75
  C 18.70 34.40 27.32 29.78 34.17 28.04
  Q 37.76 27.12 47.95 26.84
  Q 57.42 26.58 73.99 27.84
  C 77.27 28.09 80.45 28.97 83.73 29.23
  C 86.89 29.48 89.91 30.37 93.09 30.79
  Q 94.97 31.04 96.89 31.38
  Q 138.73 38.73 180.63 50.28
  Q 200.34 55.71 217.57 61.77
  Q 239.23 69.40 257.27 81.34
  Q 259.28 82.66 260.61 84.57
  A 2.31 2.31 0.0 0 1 260.04 87.79
  Q 258.56 88.82 256.82 89.01
  Q 248.29 89.95 239.68 88.83
  Q 234.56 88.16 229.62 87.77
  Q 225.29 87.43 220.60 86.71
  C 217.37 86.21 214.30 86.12 211.13 85.86
  Z"
    />
    <path fill="#000000" d="
  M 239.34 198.27
  Q 241.70 177.84 255.10 163.00
  C 259.81 157.78 266.28 153.12 273.20 151.62
  C 279.50 150.25 284.42 155.42 286.65 160.72
  Q 288.06 164.04 288.16 168.09
  Q 288.52 183.05 282.98 196.86
  Q 278.69 207.54 271.94 214.39
  C 262.13 224.34 245.53 223.34 240.73 208.75
  Q 240.14 206.96 239.51 203.36
  Q 239.05 200.75 239.34 198.27
  Z"
    />
    <ellipse fill="#000000" cx="0.00" cy="0.00" transform="translate(317.93,197.19) rotate(110.9)" rx="32.98"
             ry="18.57"/>
    <path fill="#000000" d="
  M 171.30 405.88
  C 188.85 435.21 216.28 456.44 249.27 466.20
  Q 278.66 474.89 308.57 471.47
  Q 351.37 466.58 386.67 441.18
  C 407.53 426.16 424.55 406.77 437.62 384.51
  Q 453.14 358.09 458.50 327.74
  C 459.05 324.64 459.16 321.54 459.73 318.45
  Q 460.54 314.02 460.55 309.50
  Q 460.57 299.00 460.33 289.25
  Q 460.22 284.62 459.40 279.21
  Q 459.03 276.75 458.66 274.24
  Q 457.73 267.90 456.33 259.99
  Q 454.06 247.08 451.68 234.43
  Q 450.87 230.13 451.26 227.48
  C 452.25 220.85 456.49 214.27 464.36 217.10
  Q 472.13 219.88 476.75 225.64
  C 483.55 234.12 487.29 244.43 489.78 254.80
  Q 491.29 261.11 492.00 267.73
  C 492.64 273.67 493.63 279.67 493.85 285.61
  C 494.20 295.52 494.47 305.98 493.05 315.78
  C 492.44 320.02 492.21 324.23 491.48 328.43
  C 482.45 380.27 454.65 427.49 413.17 460.04
  Q 373.11 491.48 323.65 499.28
  Q 319.50 499.94 315.89 500.04
  C 312.33 500.14 308.93 500.86 305.39 501.02
  Q 294.42 501.52 289.69 500.91
  C 283.74 500.15 277.67 500.18 271.75 499.20
  Q 252.14 495.96 237.46 490.45
  Q 177.51 467.95 148.14 410.93
  Q 139.70 394.55 134.58 374.27
  Q 132.12 364.52 131.03 354.56
  Q 127.79 324.96 134.17 293.25
  Q 142.35 252.57 164.54 218.83
  C 172.78 206.28 182.21 196.47 194.51 188.53
  Q 196.04 187.55 197.64 188.13
  A 1.82 1.81 26.7 0 1 198.54 190.83
  Q 192.13 200.63 185.74 210.37
  C 170.19 234.12 157.43 260.52 151.63 287.63
  Q 145.24 317.54 150.28 348.15
  Q 155.40 379.30 171.30 405.88
  Z"
    />
</svg>
